<svg width="414" height="447" viewBox="0 0 414 447" fill="none" xmlns="http://www.w3.org/2000/svg">
<rect x="47.9219" y="212" width="319" height="110" fill="black"/>
<rect y="200.968" width="235.091" height="31" transform="rotate(-28.1657 0 200.968)" fill="black"/>
<rect width="234.512" height="31" transform="matrix(0.881586 0.472023 0.472023 -0.881586 191.922 117.329)" fill="black"/>
<path d="M78.2243 90.6182L70.7711 94.6095C69.1823 92.7017 67.4024 91.2315 65.4314 90.1988C63.4804 89.1553 61.4285 88.501 59.2757 88.236C57.1321 87.9402 54.9685 88.016 52.7847 88.4636C50.601 88.9112 48.4873 89.6821 46.4437 90.7765C42.7172 92.7722 39.8455 95.5217 37.8287 99.0252C35.832 102.518 34.9238 106.575 35.1041 111.196C35.3045 115.807 36.8317 120.777 39.6857 126.106C42.5397 131.436 45.8299 135.461 49.5565 138.184C53.3031 140.895 57.1833 142.388 61.1972 142.662C65.231 142.925 69.1113 142.059 72.8378 140.063C74.8814 138.969 76.6946 137.637 78.2775 136.067C79.8604 134.498 81.1282 132.749 82.0808 130.821C83.0427 128.862 83.6301 126.781 83.8429 124.579C84.065 122.346 83.8278 120.05 83.1313 117.69L90.5844 113.699C91.7079 117.145 92.1936 120.507 92.0414 123.785C91.8892 127.064 91.1779 130.164 89.9075 133.088C88.6264 135.991 86.8548 138.628 84.5928 141C82.3508 143.361 79.6771 145.372 76.5716 147.036C71.3224 149.847 65.9675 151.064 60.5069 150.689C55.0464 150.313 49.878 148.388 45.0018 144.915C40.1255 141.442 35.9493 136.46 32.473 129.969C28.9967 123.477 27.1645 117.24 26.9765 111.256C26.7886 105.273 28.0515 99.9041 30.7653 95.1508C33.4792 90.3975 37.4607 86.6153 42.7099 83.8043C45.8154 82.1412 48.9719 81.0309 52.1795 80.4733C55.4072 79.905 58.5897 79.9022 61.727 80.4651C64.8536 81.0079 67.8234 82.1245 70.6365 83.8149C73.4388 85.4853 75.968 87.753 78.2243 90.6182Z" fill="black"/>
<path d="M136.882 111.104L129.068 115.288L118.707 41.637L126.401 37.517L181.961 86.9626L174.147 91.147L128.009 49.1854L127.528 49.4429L136.882 111.104ZM126.892 85.5162L158.387 68.6498L161.928 75.2614L130.432 92.1279L126.892 85.5162Z" fill="black"/>
<path d="M281.777 57.8396C283.047 54.6011 282.851 51.4537 281.187 48.3974C279.524 45.341 276.829 42.8151 273.103 40.8194C270.378 39.3602 267.758 38.5242 265.242 38.3114C262.746 38.1093 260.514 38.4738 258.546 39.4049C256.598 40.3468 255.098 41.7995 254.047 43.7629C253.167 45.4058 252.801 47.0275 252.95 48.628C253.129 50.2193 253.63 51.7382 254.454 53.1848C255.288 54.6113 256.253 55.9398 257.347 57.1703C258.452 58.3807 259.495 59.442 260.476 60.3541L265.825 65.3846C267.203 66.6637 268.675 68.1996 270.241 69.9924C271.828 71.7959 273.179 73.8216 274.296 76.0695C275.443 78.3081 276.077 80.7356 276.197 83.3522C276.317 85.9687 275.604 88.7195 274.059 91.6045C272.278 94.9304 269.797 97.469 266.616 99.2202C263.455 100.982 259.788 101.764 255.615 101.566C251.461 101.378 247.02 100.018 242.292 97.4863C237.884 95.1259 234.449 92.3707 231.985 89.2208C229.541 86.0816 228.079 82.7462 227.598 79.2146C227.137 75.6938 227.688 72.186 229.25 68.6913L236.944 72.8114C235.9 75.2428 235.651 77.5846 236.198 79.8369C236.776 82.0798 237.918 84.1353 239.625 86.0031C241.362 87.8617 243.453 89.4455 245.897 90.7545C248.742 92.278 251.543 93.1852 254.301 93.476C257.069 93.7468 259.56 93.4047 261.773 92.4499C263.996 91.4751 265.709 89.8657 266.911 87.6218C268.005 85.5782 268.325 83.6095 267.869 81.7157C267.414 79.8218 266.469 77.9753 265.035 76.1761C263.601 74.3768 261.963 72.5973 260.121 70.8375L253.706 64.618C249.638 60.6605 246.888 56.6485 245.457 52.5819C244.025 48.5153 244.42 44.4083 246.641 40.261C248.486 36.8149 251.027 34.3086 254.264 32.7419C257.531 31.1659 261.129 30.5143 265.056 30.787C269.014 31.0504 272.957 32.2336 276.884 34.3365C280.851 36.4609 283.996 39.0605 286.32 42.1354C288.654 45.1901 290.068 48.4225 290.562 51.8324C291.077 55.2531 290.552 58.543 288.99 61.7021L281.777 57.8396Z" fill="black"/>
<path d="M313.922 134.327L306.108 130.143L361.668 80.6974L369.362 84.8174L359.001 158.468L351.187 154.284L360.541 92.6233L360.06 92.3658L313.922 134.327ZM329.682 111.83L361.177 128.697L357.637 135.308L326.141 118.442L329.682 111.83Z" fill="black"/>
<path d="M111.781 247.016H80.4219V263.891H109.297C111.422 263.891 113 264.375 114.031 265.344C115.094 266.281 115.625 267.531 115.625 269.094C115.625 270.656 115.109 271.938 114.078 272.938C113.047 273.906 111.453 274.391 109.297 274.391H80.4219V293.938H112.859C115.047 293.938 116.688 294.453 117.781 295.484C118.906 296.484 119.469 297.828 119.469 299.516C119.469 301.141 118.906 302.469 117.781 303.5C116.688 304.5 115.047 305 112.859 305H75.0312C72 305 69.8125 304.328 68.4688 302.984C67.1562 301.641 66.5 299.469 66.5 296.469V244.812C66.5 242.812 66.7969 241.188 67.3906 239.938C67.9844 238.656 68.9062 237.734 70.1562 237.172C71.4375 236.578 73.0625 236.281 75.0312 236.281H111.781C114 236.281 115.641 236.781 116.703 237.781C117.797 238.75 118.344 240.031 118.344 241.625C118.344 243.25 117.797 244.562 116.703 245.562C115.641 246.531 114 247.016 111.781 247.016ZM139.156 236.281H157.297C162.016 236.281 166.062 236.719 169.438 237.594C172.812 238.469 175.875 240.109 178.625 242.516C185.781 248.641 189.359 257.953 189.359 270.453C189.359 274.578 189 278.344 188.281 281.75C187.562 285.156 186.453 288.234 184.953 290.984C183.453 293.703 181.531 296.141 179.188 298.297C177.344 299.953 175.328 301.281 173.141 302.281C170.953 303.281 168.594 303.984 166.062 304.391C163.562 304.797 160.734 305 157.578 305H139.438C136.906 305 135 304.625 133.719 303.875C132.438 303.094 131.594 302.016 131.188 300.641C130.812 299.234 130.625 297.422 130.625 295.203V244.812C130.625 241.812 131.297 239.641 132.641 238.297C133.984 236.953 136.156 236.281 139.156 236.281ZM144.547 247.297V293.938H155.094C157.406 293.938 159.219 293.875 160.531 293.75C161.844 293.625 163.203 293.312 164.609 292.812C166.016 292.312 167.234 291.609 168.266 290.703C172.922 286.766 175.25 279.984 175.25 270.359C175.25 263.578 174.219 258.5 172.156 255.125C170.125 251.75 167.609 249.609 164.609 248.703C161.609 247.766 157.984 247.297 153.734 247.297H144.547ZM215.234 243.547V293.562H243.453C245.703 293.562 247.422 294.109 248.609 295.203C249.828 296.297 250.438 297.672 250.438 299.328C250.438 301.016 249.844 302.391 248.656 303.453C247.469 304.484 245.734 305 243.453 305H209.844C206.812 305 204.625 304.328 203.281 302.984C201.969 301.641 201.312 299.469 201.312 296.469V243.547C201.312 240.734 201.938 238.625 203.188 237.219C204.469 235.812 206.141 235.109 208.203 235.109C210.297 235.109 211.984 235.812 213.266 237.219C214.578 238.594 215.234 240.703 215.234 243.547ZM260.188 297.688V243.547C260.188 240.734 260.828 238.625 262.109 237.219C263.391 235.812 265.047 235.109 267.078 235.109C269.172 235.109 270.859 235.812 272.141 237.219C273.453 238.594 274.109 240.703 274.109 243.547V297.688C274.109 300.531 273.453 302.656 272.141 304.062C270.859 305.469 269.172 306.172 267.078 306.172C265.078 306.172 263.422 305.469 262.109 304.062C260.828 302.625 260.188 300.5 260.188 297.688ZM307.859 243.453L334.625 283.953V243.078C334.625 240.422 335.188 238.438 336.312 237.125C337.469 235.781 339.016 235.109 340.953 235.109C342.953 235.109 344.531 235.781 345.688 237.125C346.844 238.438 347.422 240.422 347.422 243.078V297.125C347.422 303.156 344.922 306.172 339.922 306.172C338.672 306.172 337.547 305.984 336.547 305.609C335.547 305.266 334.609 304.703 333.734 303.922C332.859 303.141 332.047 302.234 331.297 301.203C330.547 300.141 329.797 299.062 329.047 297.969L302.938 257.938V298.203C302.938 300.828 302.328 302.812 301.109 304.156C299.891 305.5 298.328 306.172 296.422 306.172C294.453 306.172 292.875 305.5 291.688 304.156C290.5 302.781 289.906 300.797 289.906 298.203V245.188C289.906 242.938 290.156 241.172 290.656 239.891C291.25 238.484 292.234 237.344 293.609 236.469C294.984 235.562 296.469 235.109 298.062 235.109C299.312 235.109 300.375 235.312 301.25 235.719C302.156 236.125 302.938 236.672 303.594 237.359C304.281 238.047 304.969 238.938 305.656 240.031C306.375 241.125 307.109 242.266 307.859 243.453Z" fill="white"/>
<path d="M16.7014 360.056C16.7014 358.184 16.9894 356.528 17.5654 355.088C18.1654 353.648 18.9694 352.448 19.9774 351.488C21.0094 350.504 22.2094 349.76 23.5774 349.256C24.9694 348.752 26.4694 348.5 28.0774 348.5C29.6854 348.5 31.1734 348.752 32.5414 349.256C33.9334 349.76 35.1454 350.504 36.1774 351.488C37.2094 352.448 38.0134 353.648 38.5894 355.088C39.1894 356.528 39.4894 358.184 39.4894 360.056C39.4894 361.928 39.2014 363.596 38.6254 365.06C38.0494 366.5 37.2454 367.712 36.2134 368.696C35.2054 369.656 34.0054 370.388 32.6134 370.892C31.2214 371.396 29.7094 371.648 28.0774 371.648C26.4454 371.648 24.9334 371.396 23.5414 370.892C22.1494 370.364 20.9494 369.608 19.9414 368.624C18.9334 367.64 18.1414 366.428 17.5654 364.988C16.9894 363.548 16.7014 361.904 16.7014 360.056ZM23.1814 360.056C23.1814 362.24 23.6254 363.872 24.5134 364.952C25.4014 366.032 26.5894 366.572 28.0774 366.572C29.5894 366.572 30.7894 366.032 31.6774 364.952C32.5654 363.872 33.0094 362.24 33.0094 360.056C33.0094 357.896 32.5654 356.276 31.6774 355.196C30.8134 354.116 29.6254 353.576 28.1134 353.576C26.6254 353.576 25.4254 354.116 24.5134 355.196C23.6254 356.252 23.1814 357.872 23.1814 360.056ZM62.8579 370.244C62.5219 370.58 62.0299 370.832 61.3819 371C60.7579 371.192 60.0019 371.288 59.1139 371.288C58.2259 371.288 57.3859 371.156 56.5939 370.892C55.8019 370.628 55.1539 369.992 54.6499 368.984L51.0859 361.712C50.7259 360.968 50.4019 360.272 50.1139 359.624C49.8259 358.952 49.5139 358.184 49.1779 357.32L48.9619 357.356C49.0579 358.652 49.1059 359.972 49.1059 361.316C49.1299 362.66 49.1419 363.98 49.1419 365.276V370.856C48.8779 370.928 48.4699 371 47.9179 371.072C47.3899 371.144 46.8619 371.18 46.3339 371.18C45.8059 371.18 45.3379 371.144 44.9299 371.072C44.5219 371 44.1859 370.856 43.9219 370.64C43.6579 370.424 43.4539 370.136 43.3099 369.776C43.1659 369.392 43.0939 368.9 43.0939 368.3V350.3C43.4299 349.82 43.9459 349.46 44.6419 349.22C45.3379 348.98 46.0819 348.86 46.8739 348.86C47.7619 348.86 48.6019 349.004 49.3939 349.292C50.2099 349.556 50.8579 350.18 51.3379 351.164L54.9379 358.436C55.2979 359.18 55.6219 359.888 55.9099 360.56C56.1979 361.208 56.5099 361.964 56.8459 362.828L57.0259 362.792C56.9299 361.496 56.8699 360.2 56.8459 358.904C56.8219 357.608 56.8099 356.312 56.8099 355.016V349.184C57.0739 349.112 57.4699 349.04 57.9979 348.968C58.5499 348.896 59.0899 348.86 59.6179 348.86C60.6739 348.86 61.4779 349.052 62.0299 349.436C62.5819 349.796 62.8579 350.564 62.8579 351.74V370.244ZM73.7915 366.32C74.0555 366.368 74.3795 366.416 74.7635 366.464C75.1475 366.488 75.5075 366.5 75.8435 366.5C76.6595 366.5 77.4035 366.38 78.0755 366.14C78.7715 365.9 79.3595 365.528 79.8395 365.024C80.3435 364.52 80.7275 363.872 80.9915 363.08C81.2795 362.264 81.4235 361.292 81.4235 360.164C81.4235 358.004 80.9195 356.384 79.9115 355.304C78.9035 354.2 77.5595 353.648 75.8795 353.648C75.5435 353.648 75.1955 353.66 74.8355 353.684C74.4995 353.708 74.1515 353.744 73.7915 353.792V366.32ZM75.8075 371.576C75.3995 371.576 74.9315 371.564 74.4035 371.54C73.8755 371.516 73.3235 371.468 72.7475 371.396C72.1955 371.324 71.6315 371.228 71.0555 371.108C70.5035 371.012 69.9875 370.868 69.5075 370.676C68.1875 370.172 67.5275 369.296 67.5275 368.048V351.236C67.5275 350.732 67.6595 350.348 67.9235 350.084C68.2115 349.796 68.5955 349.568 69.0755 349.4C70.1075 349.064 71.1995 348.848 72.3515 348.752C73.5035 348.632 74.5355 348.572 75.4475 348.572C77.3195 348.572 79.0115 348.8 80.5235 349.256C82.0595 349.712 83.3675 350.42 84.4475 351.38C85.5515 352.316 86.4035 353.504 87.0035 354.944C87.6035 356.384 87.9035 358.088 87.9035 360.056C87.9035 361.976 87.6155 363.656 87.0395 365.096C86.4635 366.512 85.6355 367.712 84.5555 368.696C83.4995 369.656 82.2275 370.376 80.7395 370.856C79.2515 371.336 77.6075 371.576 75.8075 371.576ZM91.5041 352.532C91.5041 351.5 91.8041 350.684 92.4041 350.084C93.0041 349.484 93.8201 349.184 94.8521 349.184H106.732C106.9 349.448 107.044 349.796 107.164 350.228C107.308 350.66 107.38 351.116 107.38 351.596C107.38 352.508 107.176 353.156 106.768 353.54C106.384 353.924 105.868 354.116 105.22 354.116H97.6241V357.464H105.724C105.892 357.728 106.036 358.076 106.156 358.508C106.3 358.916 106.372 359.36 106.372 359.84C106.372 360.752 106.18 361.4 105.796 361.784C105.412 362.168 104.896 362.36 104.248 362.36H97.6241V366.14H106.876C107.044 366.404 107.188 366.752 107.308 367.184C107.452 367.616 107.524 368.072 107.524 368.552C107.524 369.464 107.32 370.124 106.912 370.532C106.528 370.916 106.012 371.108 105.364 371.108H94.8521C93.8201 371.108 93.0041 370.808 92.4041 370.208C91.8041 369.608 91.5041 368.792 91.5041 367.76V352.532ZM123.078 349.832C123.486 349.592 124.098 349.364 124.914 349.148C125.754 348.932 126.594 348.824 127.434 348.824C128.634 348.824 129.69 349.004 130.602 349.364C131.538 349.7 132.138 350.24 132.402 350.984C132.834 352.232 133.302 353.684 133.806 355.34C134.31 356.996 134.814 358.712 135.318 360.488C135.822 362.24 136.314 363.98 136.794 365.708C137.274 367.412 137.694 368.924 138.054 370.244C137.766 370.58 137.334 370.844 136.758 371.036C136.182 371.252 135.498 371.36 134.706 371.36C134.13 371.36 133.638 371.312 133.23 371.216C132.846 371.12 132.522 370.976 132.258 370.784C132.018 370.592 131.814 370.34 131.646 370.028C131.502 369.716 131.37 369.356 131.25 368.948L130.602 366.464H124.086C123.894 367.184 123.702 367.928 123.51 368.696C123.318 369.464 123.126 370.208 122.934 370.928C122.598 371.048 122.238 371.144 121.854 371.216C121.494 371.312 121.05 371.36 120.522 371.36C119.298 371.36 118.386 371.156 117.786 370.748C117.21 370.316 116.922 369.728 116.922 368.984C116.922 368.648 116.97 368.312 117.066 367.976C117.162 367.64 117.27 367.244 117.39 366.788C117.558 366.14 117.786 365.336 118.074 364.376C118.386 363.416 118.722 362.384 119.082 361.28C119.442 360.152 119.826 359 120.234 357.824C120.642 356.648 121.026 355.544 121.386 354.512C121.746 353.456 122.07 352.52 122.358 351.704C122.67 350.888 122.91 350.264 123.078 349.832ZM127.398 354.476C127.062 355.484 126.678 356.612 126.246 357.86C125.838 359.084 125.466 360.332 125.13 361.604H129.594C129.258 360.308 128.91 359.048 128.55 357.824C128.214 356.576 127.902 355.46 127.614 354.476H127.398ZM148.211 352.532C148.211 351.5 148.511 350.684 149.111 350.084C149.711 349.484 150.527 349.184 151.559 349.184H163.439C163.607 349.448 163.751 349.796 163.871 350.228C164.015 350.66 164.087 351.116 164.087 351.596C164.087 352.508 163.883 353.156 163.475 353.54C163.091 353.924 162.575 354.116 161.927 354.116H154.331V357.464H162.431C162.599 357.728 162.743 358.076 162.863 358.508C163.007 358.916 163.079 359.36 163.079 359.84C163.079 360.752 162.887 361.4 162.503 361.784C162.119 362.168 161.603 362.36 160.955 362.36H154.331V366.14H163.583C163.751 366.404 163.895 366.752 164.015 367.184C164.159 367.616 164.231 368.072 164.231 368.552C164.231 369.464 164.027 370.124 163.619 370.532C163.235 370.916 162.719 371.108 162.071 371.108H151.559C150.527 371.108 149.711 370.808 149.111 370.208C148.511 369.608 148.211 368.792 148.211 367.76V352.532ZM174.302 362.324C173.246 361.964 172.286 361.604 171.422 361.244C170.558 360.86 169.814 360.404 169.19 359.876C168.566 359.348 168.074 358.724 167.714 358.004C167.378 357.26 167.21 356.36 167.21 355.304C167.21 353.264 167.99 351.632 169.55 350.408C171.134 349.184 173.342 348.572 176.174 348.572C177.206 348.572 178.166 348.644 179.054 348.788C179.942 348.932 180.698 349.16 181.322 349.472C181.97 349.76 182.474 350.144 182.834 350.624C183.194 351.08 183.374 351.62 183.374 352.244C183.374 352.868 183.23 353.408 182.942 353.864C182.654 354.296 182.306 354.668 181.898 354.98C181.37 354.644 180.662 354.356 179.774 354.116C178.886 353.852 177.914 353.72 176.858 353.72C175.778 353.72 174.986 353.876 174.482 354.188C173.978 354.476 173.726 354.848 173.726 355.304C173.726 355.664 173.882 355.964 174.194 356.204C174.506 356.42 174.974 356.624 175.598 356.816L177.506 357.428C179.762 358.148 181.49 359.072 182.69 360.2C183.914 361.304 184.526 362.816 184.526 364.736C184.526 366.776 183.722 368.432 182.114 369.704C180.506 370.952 178.142 371.576 175.022 371.576C173.918 371.576 172.886 371.48 171.926 371.288C170.99 371.12 170.162 370.868 169.442 370.532C168.746 370.172 168.194 369.74 167.786 369.236C167.402 368.708 167.21 368.108 167.21 367.436C167.21 366.74 167.414 366.152 167.822 365.672C168.23 365.168 168.674 364.784 169.154 364.52C169.826 365.048 170.642 365.504 171.602 365.888C172.586 366.272 173.654 366.464 174.806 366.464C175.982 366.464 176.81 366.284 177.29 365.924C177.77 365.564 178.01 365.144 178.01 364.664C178.01 364.184 177.818 363.824 177.434 363.584C177.05 363.32 176.51 363.068 175.814 362.828L174.302 362.324ZM196.11 359.3C197.118 359.3 197.886 359.072 198.414 358.616C198.966 358.136 199.242 357.416 199.242 356.456C199.242 355.544 198.954 354.848 198.378 354.368C197.826 353.864 197.01 353.612 195.93 353.612C195.546 353.612 195.222 353.624 194.958 353.648C194.718 353.648 194.466 353.672 194.202 353.72V359.3H196.11ZM194.238 370.856C193.974 370.928 193.554 371 192.978 371.072C192.426 371.144 191.874 371.18 191.322 371.18C190.77 371.18 190.278 371.132 189.846 371.036C189.438 370.964 189.09 370.82 188.802 370.604C188.514 370.388 188.298 370.088 188.154 369.704C188.01 369.32 187.938 368.816 187.938 368.192V351.236C187.938 350.732 188.07 350.348 188.334 350.084C188.622 349.796 189.006 349.568 189.486 349.4C190.302 349.112 191.226 348.908 192.258 348.788C193.314 348.644 194.37 348.572 195.426 348.572C198.738 348.572 201.27 349.28 203.022 350.696C204.774 352.112 205.65 354.032 205.65 356.456C205.65 357.632 205.458 358.7 205.074 359.66C204.714 360.596 204.162 361.412 203.418 362.108C202.698 362.78 201.774 363.308 200.646 363.692C199.542 364.052 198.258 364.232 196.794 364.232H194.238V370.856ZM208.856 352.532C208.856 351.5 209.156 350.684 209.756 350.084C210.356 349.484 211.172 349.184 212.204 349.184H224.084C224.252 349.448 224.396 349.796 224.516 350.228C224.66 350.66 224.732 351.116 224.732 351.596C224.732 352.508 224.528 353.156 224.12 353.54C223.736 353.924 223.22 354.116 222.572 354.116H214.976V357.464H223.076C223.244 357.728 223.388 358.076 223.508 358.508C223.652 358.916 223.724 359.36 223.724 359.84C223.724 360.752 223.532 361.4 223.148 361.784C222.764 362.168 222.248 362.36 221.6 362.36H214.976V366.14H224.228C224.396 366.404 224.54 366.752 224.66 367.184C224.804 367.616 224.876 368.072 224.876 368.552C224.876 369.464 224.672 370.124 224.264 370.532C223.88 370.916 223.364 371.108 222.716 371.108H212.204C211.172 371.108 210.356 370.808 209.756 370.208C209.156 369.608 208.856 368.792 208.856 367.76V352.532ZM239.491 353.576C237.643 353.576 236.227 354.14 235.243 355.268C234.259 356.396 233.767 357.992 233.767 360.056C233.767 362.144 234.307 363.752 235.387 364.88C236.491 366.008 237.967 366.572 239.815 366.572C240.799 366.572 241.627 366.44 242.299 366.176C242.995 365.912 243.655 365.612 244.279 365.276C244.687 365.612 244.999 366.02 245.215 366.5C245.455 366.956 245.575 367.496 245.575 368.12C245.575 369.104 245.023 369.944 243.919 370.64C242.839 371.312 241.183 371.648 238.951 371.648C237.343 371.648 235.831 371.42 234.415 370.964C232.999 370.508 231.763 369.812 230.707 368.876C229.651 367.916 228.811 366.716 228.187 365.276C227.587 363.812 227.287 362.072 227.287 360.056C227.287 358.184 227.575 356.54 228.151 355.124C228.751 353.684 229.555 352.472 230.563 351.488C231.595 350.504 232.795 349.76 234.163 349.256C235.531 348.752 236.995 348.5 238.555 348.5C240.763 348.5 242.467 348.86 243.667 349.58C244.891 350.3 245.503 351.224 245.503 352.352C245.503 352.976 245.347 353.516 245.035 353.972C244.723 354.428 244.363 354.788 243.955 355.052C243.331 354.644 242.659 354.296 241.939 354.008C241.243 353.72 240.427 353.576 239.491 353.576ZM255.234 370.856C254.97 370.928 254.55 371 253.974 371.072C253.422 371.144 252.87 371.18 252.318 371.18C251.766 371.18 251.274 371.132 250.842 371.036C250.434 370.964 250.086 370.82 249.798 370.604C249.51 370.388 249.294 370.088 249.15 369.704C249.006 369.32 248.934 368.816 248.934 368.192V349.184C249.198 349.136 249.618 349.076 250.194 349.004C250.77 348.908 251.322 348.86 251.85 348.86C252.402 348.86 252.882 348.908 253.29 349.004C253.722 349.076 254.082 349.22 254.37 349.436C254.658 349.652 254.874 349.952 255.018 350.336C255.162 350.72 255.234 351.224 255.234 351.848V370.856ZM264.547 349.832C264.955 349.592 265.567 349.364 266.383 349.148C267.223 348.932 268.063 348.824 268.903 348.824C270.103 348.824 271.159 349.004 272.071 349.364C273.007 349.7 273.607 350.24 273.871 350.984C274.303 352.232 274.771 353.684 275.275 355.34C275.779 356.996 276.283 358.712 276.787 360.488C277.291 362.24 277.783 363.98 278.263 365.708C278.743 367.412 279.163 368.924 279.523 370.244C279.235 370.58 278.803 370.844 278.227 371.036C277.651 371.252 276.967 371.36 276.175 371.36C275.599 371.36 275.107 371.312 274.699 371.216C274.315 371.12 273.991 370.976 273.727 370.784C273.487 370.592 273.283 370.34 273.115 370.028C272.971 369.716 272.839 369.356 272.719 368.948L272.071 366.464H265.555C265.363 367.184 265.171 367.928 264.979 368.696C264.787 369.464 264.595 370.208 264.403 370.928C264.067 371.048 263.707 371.144 263.323 371.216C262.963 371.312 262.519 371.36 261.991 371.36C260.767 371.36 259.855 371.156 259.255 370.748C258.679 370.316 258.391 369.728 258.391 368.984C258.391 368.648 258.439 368.312 258.535 367.976C258.631 367.64 258.739 367.244 258.859 366.788C259.027 366.14 259.255 365.336 259.543 364.376C259.855 363.416 260.191 362.384 260.551 361.28C260.911 360.152 261.295 359 261.703 357.824C262.111 356.648 262.494 355.544 262.854 354.512C263.215 353.456 263.539 352.52 263.827 351.704C264.139 350.888 264.379 350.264 264.547 349.832ZM268.867 354.476C268.531 355.484 268.147 356.612 267.715 357.86C267.307 359.084 266.935 360.332 266.599 361.604H271.063C270.727 360.308 270.379 359.048 270.019 357.824C269.683 356.576 269.371 355.46 269.083 354.476H268.867ZM285.821 371.108C284.789 371.108 283.973 370.808 283.373 370.208C282.773 369.608 282.473 368.792 282.473 367.76V349.148C282.737 349.1 283.157 349.04 283.733 348.968C284.309 348.872 284.861 348.824 285.389 348.824C285.941 348.824 286.421 348.872 286.829 348.968C287.261 349.04 287.621 349.184 287.909 349.4C288.197 349.616 288.413 349.916 288.557 350.3C288.701 350.684 288.773 351.188 288.773 351.812V366.032H297.017C297.185 366.296 297.341 366.656 297.485 367.112C297.629 367.544 297.701 368 297.701 368.48C297.701 369.44 297.497 370.124 297.089 370.532C296.681 370.916 296.141 371.108 295.469 371.108H285.821ZM307.23 370.856C306.966 370.928 306.546 371 305.97 371.072C305.418 371.144 304.866 371.18 304.314 371.18C303.762 371.18 303.27 371.132 302.838 371.036C302.43 370.964 302.082 370.82 301.794 370.604C301.506 370.388 301.29 370.088 301.146 369.704C301.002 369.32 300.93 368.816 300.93 368.192V349.184C301.194 349.136 301.614 349.076 302.19 349.004C302.766 348.908 303.318 348.86 303.846 348.86C304.398 348.86 304.878 348.908 305.286 349.004C305.718 349.076 306.078 349.22 306.366 349.436C306.654 349.652 306.87 349.952 307.014 350.336C307.158 350.72 307.23 351.224 307.23 351.848V370.856ZM318.163 366.32C318.427 366.368 318.751 366.416 319.135 366.464C319.519 366.488 319.879 366.5 320.215 366.5C321.031 366.5 321.775 366.38 322.447 366.14C323.143 365.9 323.731 365.528 324.211 365.024C324.715 364.52 325.099 363.872 325.363 363.08C325.651 362.264 325.795 361.292 325.795 360.164C325.795 358.004 325.291 356.384 324.283 355.304C323.275 354.2 321.931 353.648 320.251 353.648C319.915 353.648 319.567 353.66 319.207 353.684C318.871 353.708 318.523 353.744 318.163 353.792V366.32ZM320.179 371.576C319.771 371.576 319.303 371.564 318.775 371.54C318.247 371.516 317.695 371.468 317.119 371.396C316.567 371.324 316.003 371.228 315.427 371.108C314.875 371.012 314.359 370.868 313.879 370.676C312.559 370.172 311.899 369.296 311.899 368.048V351.236C311.899 350.732 312.031 350.348 312.295 350.084C312.583 349.796 312.967 349.568 313.447 349.4C314.479 349.064 315.571 348.848 316.723 348.752C317.875 348.632 318.907 348.572 319.819 348.572C321.691 348.572 323.383 348.8 324.895 349.256C326.431 349.712 327.739 350.42 328.819 351.38C329.923 352.316 330.775 353.504 331.375 354.944C331.975 356.384 332.275 358.088 332.275 360.056C332.275 361.976 331.987 363.656 331.411 365.096C330.835 366.512 330.007 367.712 328.927 368.696C327.871 369.656 326.599 370.376 325.111 370.856C323.623 371.336 321.979 371.576 320.179 371.576ZM340.273 349.832C340.681 349.592 341.293 349.364 342.109 349.148C342.949 348.932 343.789 348.824 344.629 348.824C345.829 348.824 346.885 349.004 347.797 349.364C348.733 349.7 349.333 350.24 349.597 350.984C350.029 352.232 350.497 353.684 351.001 355.34C351.505 356.996 352.009 358.712 352.513 360.488C353.017 362.24 353.509 363.98 353.989 365.708C354.469 367.412 354.889 368.924 355.249 370.244C354.961 370.58 354.529 370.844 353.953 371.036C353.377 371.252 352.693 371.36 351.901 371.36C351.325 371.36 350.833 371.312 350.425 371.216C350.041 371.12 349.717 370.976 349.453 370.784C349.213 370.592 349.009 370.34 348.841 370.028C348.697 369.716 348.565 369.356 348.445 368.948L347.797 366.464H341.281C341.089 367.184 340.897 367.928 340.705 368.696C340.513 369.464 340.321 370.208 340.129 370.928C339.793 371.048 339.433 371.144 339.049 371.216C338.689 371.312 338.245 371.36 337.717 371.36C336.493 371.36 335.581 371.156 334.981 370.748C334.405 370.316 334.117 369.728 334.117 368.984C334.117 368.648 334.165 368.312 334.261 367.976C334.357 367.64 334.465 367.244 334.585 366.788C334.753 366.14 334.981 365.336 335.269 364.376C335.581 363.416 335.917 362.384 336.277 361.28C336.637 360.152 337.021 359 337.429 357.824C337.837 356.648 338.221 355.544 338.581 354.512C338.941 353.456 339.265 352.52 339.553 351.704C339.865 350.888 340.105 350.264 340.273 349.832ZM344.593 354.476C344.257 355.484 343.873 356.612 343.441 357.86C343.033 359.084 342.661 360.332 342.325 361.604H346.789C346.453 360.308 346.105 359.048 345.745 357.824C345.409 356.576 345.097 355.46 344.809 354.476H344.593ZM364.463 366.32C364.727 366.368 365.051 366.416 365.435 366.464C365.819 366.488 366.179 366.5 366.515 366.5C367.331 366.5 368.075 366.38 368.747 366.14C369.443 365.9 370.031 365.528 370.511 365.024C371.015 364.52 371.399 363.872 371.663 363.08C371.951 362.264 372.095 361.292 372.095 360.164C372.095 358.004 371.591 356.384 370.583 355.304C369.575 354.2 368.231 353.648 366.551 353.648C366.215 353.648 365.867 353.66 365.507 353.684C365.171 353.708 364.823 353.744 364.463 353.792V366.32ZM366.479 371.576C366.071 371.576 365.603 371.564 365.075 371.54C364.547 371.516 363.995 371.468 363.419 371.396C362.867 371.324 362.303 371.228 361.727 371.108C361.175 371.012 360.659 370.868 360.179 370.676C358.859 370.172 358.199 369.296 358.199 368.048V351.236C358.199 350.732 358.331 350.348 358.595 350.084C358.883 349.796 359.267 349.568 359.747 349.4C360.779 349.064 361.871 348.848 363.023 348.752C364.175 348.632 365.207 348.572 366.119 348.572C367.991 348.572 369.683 348.8 371.195 349.256C372.731 349.712 374.039 350.42 375.119 351.38C376.223 352.316 377.075 353.504 377.675 354.944C378.275 356.384 378.575 358.088 378.575 360.056C378.575 361.976 378.287 363.656 377.711 365.096C377.135 366.512 376.307 367.712 375.227 368.696C374.171 369.656 372.899 370.376 371.411 370.856C369.923 371.336 368.279 371.576 366.479 371.576ZM382.176 352.532C382.176 351.5 382.476 350.684 383.076 350.084C383.676 349.484 384.492 349.184 385.524 349.184H397.404C397.572 349.448 397.716 349.796 397.836 350.228C397.98 350.66 398.052 351.116 398.052 351.596C398.052 352.508 397.848 353.156 397.44 353.54C397.056 353.924 396.54 354.116 395.892 354.116H388.296V357.464H396.396C396.564 357.728 396.708 358.076 396.828 358.508C396.972 358.916 397.044 359.36 397.044 359.84C397.044 360.752 396.852 361.4 396.468 361.784C396.084 362.168 395.568 362.36 394.92 362.36H388.296V366.14H397.548C397.716 366.404 397.86 366.752 397.98 367.184C398.124 367.616 398.196 368.072 398.196 368.552C398.196 369.464 397.992 370.124 397.584 370.532C397.2 370.916 396.684 371.108 396.036 371.108H385.524C384.492 371.108 383.676 370.808 383.076 370.208C382.476 369.608 382.176 368.792 382.176 367.76V352.532ZM82.5333 409.532C82.5333 408.5 82.8333 407.684 83.4333 407.084C84.0333 406.484 84.8493 406.184 85.8813 406.184H97.7613C97.9293 406.448 98.0733 406.796 98.1933 407.228C98.3373 407.66 98.4093 408.116 98.4093 408.596C98.4093 409.508 98.2053 410.156 97.7973 410.54C97.4133 410.924 96.8973 411.116 96.2493 411.116H88.6533V414.464H96.7533C96.9213 414.728 97.0653 415.076 97.1853 415.508C97.3293 415.916 97.4013 416.36 97.4013 416.84C97.4013 417.752 97.2093 418.4 96.8253 418.784C96.4413 419.168 95.9253 419.36 95.2773 419.36H88.6533V423.14H97.9053C98.0733 423.404 98.2173 423.752 98.3373 424.184C98.4813 424.616 98.5533 425.072 98.5533 425.552C98.5533 426.464 98.3493 427.124 97.9413 427.532C97.5573 427.916 97.0413 428.108 96.3933 428.108H85.8813C84.8493 428.108 84.0333 427.808 83.4333 427.208C82.8333 426.608 82.5333 425.792 82.5333 424.76V409.532ZM92.2533 397.364C93.4293 397.46 94.2693 397.748 94.7733 398.228C95.2773 398.684 95.5293 399.224 95.5293 399.848C95.5293 400.544 95.3253 401.096 94.9173 401.504C94.5333 401.912 93.9213 402.284 93.0813 402.62L88.1493 404.564C87.4533 404.42 86.8893 404.132 86.4573 403.7C86.0493 403.268 85.8453 402.788 85.8453 402.26C85.8453 401.924 85.9293 401.6 86.0973 401.288C86.2893 400.976 86.5773 400.724 86.9613 400.532L92.2533 397.364ZM114.113 406.832C114.521 406.592 115.133 406.364 115.949 406.148C116.789 405.932 117.629 405.824 118.469 405.824C119.669 405.824 120.725 406.004 121.637 406.364C122.573 406.7 123.173 407.24 123.437 407.984C123.869 409.232 124.337 410.684 124.841 412.34C125.345 413.996 125.849 415.712 126.353 417.488C126.857 419.24 127.349 420.98 127.829 422.708C128.309 424.412 128.729 425.924 129.089 427.244C128.801 427.58 128.369 427.844 127.793 428.036C127.217 428.252 126.533 428.36 125.741 428.36C125.165 428.36 124.673 428.312 124.265 428.216C123.881 428.12 123.557 427.976 123.293 427.784C123.053 427.592 122.849 427.34 122.681 427.028C122.537 426.716 122.405 426.356 122.285 425.948L121.637 423.464H115.121C114.929 424.184 114.737 424.928 114.545 425.696C114.353 426.464 114.161 427.208 113.969 427.928C113.633 428.048 113.273 428.144 112.889 428.216C112.529 428.312 112.085 428.36 111.557 428.36C110.333 428.36 109.421 428.156 108.821 427.748C108.245 427.316 107.957 426.728 107.957 425.984C107.957 425.648 108.005 425.312 108.101 424.976C108.197 424.64 108.305 424.244 108.425 423.788C108.593 423.14 108.821 422.336 109.109 421.376C109.421 420.416 109.757 419.384 110.117 418.28C110.477 417.152 110.861 416 111.269 414.824C111.677 413.648 112.061 412.544 112.421 411.512C112.781 410.456 113.105 409.52 113.393 408.704C113.705 407.888 113.945 407.264 114.113 406.832ZM118.433 411.476C118.097 412.484 117.713 413.612 117.281 414.86C116.873 416.084 116.501 417.332 116.165 418.604H120.629C120.293 417.308 119.945 416.048 119.585 414.824C119.249 413.576 118.937 412.46 118.649 411.476H118.433ZM152.314 427.28C151.978 427.568 151.45 427.82 150.73 428.036C150.034 428.252 149.266 428.36 148.426 428.36C147.418 428.36 146.554 428.216 145.834 427.928C145.114 427.616 144.622 427.196 144.358 426.668C144.094 426.116 143.77 425.408 143.386 424.544C143.002 423.656 142.594 422.672 142.162 421.592C141.754 420.512 141.322 419.372 140.866 418.172C140.434 416.948 140.014 415.712 139.606 414.464C139.198 413.216 138.814 411.992 138.454 410.792C138.094 409.592 137.782 408.464 137.518 407.408C137.854 407.072 138.334 406.772 138.958 406.508C139.606 406.22 140.29 406.076 141.01 406.076C141.898 406.076 142.618 406.268 143.17 406.652C143.746 407.012 144.166 407.696 144.43 408.704C145.078 411.056 145.726 413.312 146.374 415.472C147.046 417.608 147.742 419.84 148.462 422.168H148.678C149.326 419.912 149.986 417.452 150.658 414.788C151.354 412.124 152.014 409.472 152.638 406.832C153.07 406.616 153.526 406.436 154.006 406.292C154.51 406.148 155.074 406.076 155.698 406.076C156.586 406.076 157.342 406.28 157.966 406.688C158.59 407.072 158.902 407.72 158.902 408.632C158.902 409.16 158.77 409.928 158.506 410.936C158.266 411.944 157.942 413.084 157.534 414.356C157.15 415.604 156.706 416.912 156.202 418.28C155.722 419.648 155.23 420.944 154.726 422.168C154.246 423.368 153.79 424.436 153.358 425.372C152.926 426.284 152.578 426.92 152.314 427.28ZM165.617 406.832C166.025 406.592 166.637 406.364 167.453 406.148C168.293 405.932 169.133 405.824 169.973 405.824C171.173 405.824 172.229 406.004 173.141 406.364C174.077 406.7 174.677 407.24 174.941 407.984C175.373 409.232 175.841 410.684 176.345 412.34C176.849 413.996 177.353 415.712 177.857 417.488C178.361 419.24 178.853 420.98 179.333 422.708C179.813 424.412 180.233 425.924 180.593 427.244C180.305 427.58 179.873 427.844 179.297 428.036C178.721 428.252 178.037 428.36 177.245 428.36C176.669 428.36 176.177 428.312 175.769 428.216C175.385 428.12 175.061 427.976 174.797 427.784C174.557 427.592 174.353 427.34 174.185 427.028C174.041 426.716 173.909 426.356 173.789 425.948L173.141 423.464H166.625C166.433 424.184 166.241 424.928 166.049 425.696C165.857 426.464 165.665 427.208 165.473 427.928C165.137 428.048 164.777 428.144 164.393 428.216C164.033 428.312 163.589 428.36 163.061 428.36C161.837 428.36 160.925 428.156 160.325 427.748C159.749 427.316 159.461 426.728 159.461 425.984C159.461 425.648 159.509 425.312 159.605 424.976C159.701 424.64 159.809 424.244 159.929 423.788C160.097 423.14 160.325 422.336 160.613 421.376C160.925 420.416 161.261 419.384 161.621 418.28C161.981 417.152 162.365 416 162.773 414.824C163.181 413.648 163.565 412.544 163.925 411.512C164.285 410.456 164.609 409.52 164.897 408.704C165.209 407.888 165.449 407.264 165.617 406.832ZM169.937 411.476C169.601 412.484 169.217 413.612 168.785 414.86C168.377 416.084 168.005 417.332 167.669 418.604H172.133C171.797 417.308 171.449 416.048 171.089 414.824C170.753 413.576 170.441 412.46 170.153 411.476H169.937ZM189.807 420.944V427.856C189.543 427.928 189.123 428 188.547 428.072C187.995 428.144 187.443 428.18 186.891 428.18C186.339 428.18 185.847 428.132 185.415 428.036C185.007 427.964 184.659 427.82 184.371 427.604C184.107 427.388 183.903 427.088 183.759 426.704C183.615 426.32 183.543 425.816 183.543 425.192V408.236C183.543 407.732 183.675 407.348 183.939 407.084C184.227 406.796 184.611 406.568 185.091 406.4C185.907 406.112 186.855 405.908 187.935 405.788C189.015 405.644 190.167 405.572 191.391 405.572C194.703 405.572 197.199 406.268 198.879 407.66C200.559 409.052 201.399 410.936 201.399 413.312C201.399 414.8 201.015 416.072 200.247 417.128C199.479 418.184 198.567 419 197.511 419.576C198.375 420.752 199.227 421.856 200.067 422.888C200.907 423.92 201.567 424.856 202.047 425.696C201.807 426.536 201.363 427.184 200.715 427.64C200.091 428.072 199.383 428.288 198.591 428.288C198.063 428.288 197.607 428.228 197.223 428.108C196.839 427.988 196.503 427.82 196.215 427.604C195.927 427.388 195.663 427.124 195.423 426.812C195.183 426.5 194.955 426.164 194.739 425.804L191.715 420.944H189.807ZM192.075 416.156C192.987 416.156 193.707 415.928 194.235 415.472C194.763 414.992 195.027 414.296 195.027 413.384C195.027 412.472 194.727 411.788 194.127 411.332C193.551 410.852 192.627 410.612 191.355 410.612C190.995 410.612 190.707 410.624 190.491 410.648C190.275 410.672 190.035 410.708 189.771 410.756V416.156H192.075ZM211.781 427.856C211.517 427.928 211.097 428 210.521 428.072C209.969 428.144 209.417 428.18 208.865 428.18C208.313 428.18 207.821 428.132 207.389 428.036C206.981 427.964 206.633 427.82 206.345 427.604C206.057 427.388 205.841 427.088 205.697 426.704C205.553 426.32 205.481 425.816 205.481 425.192V406.184C205.745 406.136 206.165 406.076 206.741 406.004C207.317 405.908 207.869 405.86 208.397 405.86C208.949 405.86 209.429 405.908 209.837 406.004C210.269 406.076 210.629 406.22 210.917 406.436C211.205 406.652 211.421 406.952 211.565 407.336C211.709 407.72 211.781 408.224 211.781 408.848V427.856ZM216.449 409.532C216.449 408.5 216.749 407.684 217.349 407.084C217.949 406.484 218.765 406.184 219.797 406.184H231.677C231.845 406.448 231.989 406.796 232.109 407.228C232.253 407.66 232.325 408.116 232.325 408.596C232.325 409.508 232.121 410.156 231.713 410.54C231.329 410.924 230.813 411.116 230.165 411.116H222.569V414.464H230.669C230.837 414.728 230.981 415.076 231.101 415.508C231.245 415.916 231.317 416.36 231.317 416.84C231.317 417.752 231.125 418.4 230.741 418.784C230.357 419.168 229.841 419.36 229.193 419.36H222.569V423.14H231.821C231.989 423.404 232.133 423.752 232.253 424.184C232.397 424.616 232.469 425.072 232.469 425.552C232.469 426.464 232.265 427.124 231.857 427.532C231.473 427.916 230.957 428.108 230.309 428.108H219.797C218.765 428.108 217.949 427.808 217.349 427.208C216.749 426.608 216.449 425.792 216.449 424.76V409.532ZM242.436 423.32C242.7 423.368 243.024 423.416 243.408 423.464C243.792 423.488 244.152 423.5 244.488 423.5C245.304 423.5 246.048 423.38 246.72 423.14C247.416 422.9 248.004 422.528 248.484 422.024C248.988 421.52 249.372 420.872 249.636 420.08C249.924 419.264 250.068 418.292 250.068 417.164C250.068 415.004 249.564 413.384 248.556 412.304C247.548 411.2 246.204 410.648 244.524 410.648C244.188 410.648 243.84 410.66 243.48 410.684C243.144 410.708 242.796 410.744 242.436 410.792V423.32ZM244.452 428.576C244.044 428.576 243.576 428.564 243.048 428.54C242.52 428.516 241.968 428.468 241.392 428.396C240.84 428.324 240.276 428.228 239.7 428.108C239.148 428.012 238.632 427.868 238.152 427.676C236.832 427.172 236.172 426.296 236.172 425.048V408.236C236.172 407.732 236.304 407.348 236.568 407.084C236.856 406.796 237.24 406.568 237.72 406.4C238.752 406.064 239.844 405.848 240.996 405.752C242.148 405.632 243.18 405.572 244.092 405.572C245.964 405.572 247.656 405.8 249.168 406.256C250.704 406.712 252.012 407.42 253.092 408.38C254.196 409.316 255.048 410.504 255.648 411.944C256.248 413.384 256.548 415.088 256.548 417.056C256.548 418.976 256.26 420.656 255.684 422.096C255.108 423.512 254.28 424.712 253.2 425.696C252.144 426.656 250.872 427.376 249.384 427.856C247.896 428.336 246.252 428.576 244.452 428.576ZM264.547 406.832C264.955 406.592 265.567 406.364 266.383 406.148C267.223 405.932 268.063 405.824 268.903 405.824C270.103 405.824 271.159 406.004 272.071 406.364C273.007 406.7 273.607 407.24 273.871 407.984C274.303 409.232 274.771 410.684 275.275 412.34C275.779 413.996 276.283 415.712 276.787 417.488C277.291 419.24 277.783 420.98 278.263 422.708C278.743 424.412 279.163 425.924 279.523 427.244C279.235 427.58 278.803 427.844 278.227 428.036C277.651 428.252 276.967 428.36 276.175 428.36C275.599 428.36 275.107 428.312 274.699 428.216C274.315 428.12 273.991 427.976 273.727 427.784C273.487 427.592 273.283 427.34 273.115 427.028C272.971 426.716 272.839 426.356 272.719 425.948L272.071 423.464H265.555C265.363 424.184 265.171 424.928 264.979 425.696C264.787 426.464 264.595 427.208 264.403 427.928C264.067 428.048 263.707 428.144 263.323 428.216C262.963 428.312 262.519 428.36 261.991 428.36C260.767 428.36 259.855 428.156 259.255 427.748C258.679 427.316 258.391 426.728 258.391 425.984C258.391 425.648 258.439 425.312 258.535 424.976C258.631 424.64 258.739 424.244 258.859 423.788C259.027 423.14 259.255 422.336 259.543 421.376C259.855 420.416 260.191 419.384 260.551 418.28C260.911 417.152 261.295 416 261.703 414.824C262.111 413.648 262.494 412.544 262.854 411.512C263.215 410.456 263.539 409.52 263.827 408.704C264.139 407.888 264.379 407.264 264.547 406.832ZM268.867 411.476C268.531 412.484 268.147 413.612 267.715 414.86C267.307 416.084 266.935 417.332 266.599 418.604H271.063C270.727 417.308 270.379 416.048 270.019 414.824C269.683 413.576 269.371 412.46 269.083 411.476H268.867ZM288.737 423.32C289.001 423.368 289.325 423.416 289.709 423.464C290.093 423.488 290.453 423.5 290.789 423.5C291.605 423.5 292.349 423.38 293.021 423.14C293.717 422.9 294.305 422.528 294.785 422.024C295.289 421.52 295.673 420.872 295.937 420.08C296.225 419.264 296.369 418.292 296.369 417.164C296.369 415.004 295.865 413.384 294.857 412.304C293.849 411.2 292.505 410.648 290.825 410.648C290.489 410.648 290.141 410.66 289.781 410.684C289.445 410.708 289.097 410.744 288.737 410.792V423.32ZM290.753 428.576C290.345 428.576 289.877 428.564 289.349 428.54C288.821 428.516 288.269 428.468 287.693 428.396C287.141 428.324 286.577 428.228 286.001 428.108C285.449 428.012 284.933 427.868 284.453 427.676C283.133 427.172 282.473 426.296 282.473 425.048V408.236C282.473 407.732 282.605 407.348 282.869 407.084C283.157 406.796 283.541 406.568 284.021 406.4C285.053 406.064 286.145 405.848 287.297 405.752C288.449 405.632 289.481 405.572 290.393 405.572C292.265 405.572 293.957 405.8 295.469 406.256C297.005 406.712 298.313 407.42 299.393 408.38C300.497 409.316 301.349 410.504 301.949 411.944C302.549 413.384 302.849 415.088 302.849 417.056C302.849 418.976 302.561 420.656 301.985 422.096C301.409 423.512 300.581 424.712 299.501 425.696C298.445 426.656 297.173 427.376 295.685 427.856C294.197 428.336 292.553 428.576 290.753 428.576ZM306.449 409.532C306.449 408.5 306.749 407.684 307.349 407.084C307.949 406.484 308.765 406.184 309.797 406.184H321.677C321.845 406.448 321.989 406.796 322.109 407.228C322.253 407.66 322.325 408.116 322.325 408.596C322.325 409.508 322.121 410.156 321.713 410.54C321.329 410.924 320.813 411.116 320.165 411.116H312.569V414.464H320.669C320.837 414.728 320.981 415.076 321.101 415.508C321.245 415.916 321.317 416.36 321.317 416.84C321.317 417.752 321.125 418.4 320.741 418.784C320.357 419.168 319.841 419.36 319.193 419.36H312.569V423.14H321.821C321.989 423.404 322.133 423.752 322.253 424.184C322.397 424.616 322.469 425.072 322.469 425.552C322.469 426.464 322.265 427.124 321.857 427.532C321.473 427.916 320.957 428.108 320.309 428.108H309.797C308.765 428.108 307.949 427.808 307.349 427.208C306.749 426.608 306.449 425.792 306.449 424.76V409.532ZM332.364 407.12C332.364 407.672 332.352 408.476 332.328 409.532C332.304 410.564 332.256 411.692 332.184 412.916C332.112 414.116 332.016 415.328 331.896 416.552C331.776 417.752 331.632 418.796 331.464 419.684C331.368 419.756 331.224 419.828 331.032 419.9C330.84 419.972 330.636 420.032 330.42 420.08C330.204 420.128 329.988 420.164 329.772 420.188C329.556 420.212 329.364 420.224 329.196 420.224C328.5 420.224 327.912 420.116 327.432 419.9C326.976 419.684 326.688 419.264 326.568 418.64C326.448 418.088 326.34 417.248 326.244 416.12C326.172 414.992 326.1 413.768 326.028 412.448C325.956 411.128 325.896 409.82 325.848 408.524C325.824 407.228 325.812 406.124 325.812 405.212C326.292 404.948 326.832 404.744 327.432 404.6C328.056 404.432 328.668 404.348 329.268 404.348C330.252 404.348 331.008 404.576 331.536 405.032C332.088 405.488 332.364 406.184 332.364 407.12ZM325.74 425.264C325.74 424.28 326.04 423.476 326.64 422.852C327.264 422.204 328.116 421.88 329.196 421.88C330.276 421.88 331.116 422.204 331.716 422.852C332.34 423.476 332.652 424.28 332.652 425.264C332.652 426.248 332.34 427.064 331.716 427.712C331.116 428.336 330.276 428.648 329.196 428.648C328.116 428.648 327.264 428.336 326.64 427.712C326.04 427.064 325.74 426.248 325.74 425.264Z" fill="black"/>
</svg>
